<svg version="1.0" xmlns="http://www.w3.org/2000/svg"
 width="1200.000000pt" height="270.000000pt" viewBox="0 0 1200.000000 270.000000"
 preserveAspectRatio="xMidYMid meet">

<g transform="translate(0.000000,270.000000) scale(0.100000,-0.100000)"
fill="#C80036" stroke="none">
<path d="M819 2684 c-376 -68 -689 -363 -791 -746 -22 -82 -22 -91 -25 -1010
-3 -751 -1 -928 9 -927 7 0 121 37 253 82 l240 82 5 820 c4 581 9 829 17 852
48 134 153 250 279 310 69 33 87 37 178 41 165 7 275 -34 387 -147 71 -72 119
-157 138 -249 7 -36 11 -304 11 -840 l0 -787 248 -83 c136 -45 251 -82 255
-82 4 0 6 415 5 923 l-4 922 -27 99 c-89 328 -339 598 -653 706 -140 49 -365
63 -525 34z"/>
<path d="M9703 2617 l-242 -81 -3 -816 -3 -815 -23 -60 c-66 -176 -227 -308
-409 -335 -239 -37 -481 115 -554 349 -14 45 -22 107 -26 192 l-6 126 -246
-82 -246 -82 1 -89 c4 -253 157 -543 377 -712 190 -147 381 -212 622 -212 149
0 223 12 348 54 141 48 243 113 363 231 194 190 280 372 304 640 5 61 10 485
10 943 0 659 -3 832 -12 831 -7 0 -122 -37 -255 -82z"/>
<path d="M10730 2685 c-228 -49 -433 -215 -531 -431 -51 -111 -63 -182 -63
-359 0 -135 3 -172 22 -238 60 -213 206 -388 407 -490 110 -55 140 -60 440
-67 312 -7 327 -10 399 -78 62 -59 76 -100 76 -222 0 -80 -5 -114 -19 -145
-22 -50 -70 -99 -125 -128 -41 -22 -44 -22 -618 -25 -318 -1 -578 -6 -578 -10
0 -4 36 -116 81 -249 l81 -243 516 0 c588 0 601 2 747 74 214 107 365 300 410
525 26 127 17 368 -17 473 -66 199 -208 363 -393 453 -135 65 -195 75 -463 75
-262 0 -308 8 -373 67 -63 57 -82 103 -87 208 -2 50 1 109 7 132 17 61 68 123
130 155 l53 28 579 0 c319 0 579 3 579 7 0 4 -37 119 -82 255 l-83 248 -515
-1 c-397 0 -530 -4 -580 -14z"/>
<path d="M3110 2020 c-248 -23 -453 -122 -628 -304 -131 -136 -208 -270 -254
-438 -20 -73 -23 -105 -22 -273 0 -177 2 -196 27 -276 52 -171 119 -288 237
-413 127 -136 275 -227 455 -282 84 -26 102 -28 280 -28 169 -1 199 2 268 22
181 52 323 136 453 266 130 131 221 286 265 451 32 120 37 348 11 475 -43 209
-139 380 -299 530 -161 153 -358 246 -555 265 -126 11 -155 12 -238 5z m201
-514 c261 -56 435 -304 399 -568 -29 -213 -212 -396 -427 -429 -370 -55 -674
313 -552 668 49 144 179 271 324 316 94 30 160 33 256 13z"/>
<path d="M5300 2019 c-181 -15 -354 -83 -508 -199 -186 -140 -317 -338 -374
-566 -31 -127 -32 -361 0 -487 88 -354 372 -645 720 -739 117 -31 355 -36 482
-10 322 66 607 308 730 617 50 125 65 215 64 380 0 167 -19 268 -73 395 -138
324 -479 581 -805 605 -39 3 -87 7 -106 9 -19 2 -78 -1 -130 -5z m213 -514
c37 -8 94 -28 127 -46 72 -38 178 -145 214 -216 98 -195 66 -420 -82 -575
-108 -114 -215 -160 -367 -160 -152 0 -259 46 -367 160 -92 96 -138 210 -138
341 0 144 51 260 159 364 129 125 280 169 454 132z"/>
<path d="M7495 2019 c-128 -12 -235 -42 -348 -98 l-99 -49 -221 74 c-122 41
-225 74 -229 74 -5 0 -8 -454 -8 -1010 l0 -1010 250 0 250 0 0 513 c0 302 4
539 10 577 21 132 110 268 223 343 93 61 156 78 311 86 l139 6 79 235 c43 129
81 243 84 253 5 16 -7 17 -173 16 -98 -1 -218 -5 -268 -10z"/>
</g>
</svg>
